<svg xmlns="http://www.w3.org/2000/svg" xmlns:xlink="http://www.w3.org/1999/xlink" width="500" zoomAndPan="magnify" viewBox="0 0 375 262.499992" height="350" preserveAspectRatio="xMidYMid meet" version="1.0"><defs><g/></defs><path fill="#000000" d="M 79.277344 191.53125 L 159.074219 191.53125 L 159.074219 231.511719 L 198.886719 231.511719 L 198.886719 159.261719 L 119.234375 159.261719 L 198.886719 79.441406 L 159.074219 79.441406 L 79.277344 159.261719 Z M 79.277344 191.53125 " fill-opacity="1" fill-rule="nonzero"/><path fill="#000000" d="M 216.070312 119.398438 L 255.910156 79.441406 L 216.070312 79.441406 Z M 216.070312 119.398438 " fill-opacity="1" fill-rule="nonzero"/><path fill="#000000" d="M 255.910156 119.398438 L 216.070312 159.261719 L 216.070312 199.097656 L 255.910156 199.097656 L 255.910156 159.261719 L 295.867188 119.398438 L 295.867188 79.441406 L 255.910156 79.441406 Z M 255.910156 119.398438 " fill-opacity="1" fill-rule="nonzero"/><path fill="#000000" d="M 295.867188 159.261719 L 255.910156 199.097656 L 295.867188 199.097656 Z M 295.867188 159.261719 " fill-opacity="1" fill-rule="nonzero"/><g fill="#000000" fill-opacity="1"><g transform="translate(12.982809, 53.126287)"><g><path d="M 8.375 0 C 7.332031 0 6.375 -0.253906 5.5 -0.765625 C 4.625 -1.273438 3.929688 -1.960938 3.421875 -2.828125 C 2.921875 -3.703125 2.671875 -4.664062 2.671875 -5.71875 L 2.671875 -28.5625 C 2.671875 -29.613281 2.921875 -30.570312 3.421875 -31.4375 C 3.929688 -32.3125 4.625 -33.003906 5.5 -33.515625 C 6.375 -34.023438 7.332031 -34.28125 8.375 -34.28125 L 36.84375 -34.28125 L 36.84375 -30.421875 L 8.375 -30.421875 C 7.875 -30.421875 7.4375 -30.238281 7.0625 -29.875 C 6.695312 -29.507812 6.515625 -29.070312 6.515625 -28.5625 L 6.515625 -5.71875 C 6.515625 -5.207031 6.695312 -4.769531 7.0625 -4.40625 C 7.4375 -4.039062 7.875 -3.859375 8.375 -3.859375 L 36.84375 -3.859375 L 36.84375 0 Z M 8.375 0 "/></g></g></g><g fill="#000000" fill-opacity="1"><g transform="translate(52.113887, 53.126287)"><g><path d="M 8.1875 0 C 7.144531 0 6.1875 -0.257812 5.3125 -0.78125 C 4.4375 -1.3125 3.734375 -2.007812 3.203125 -2.875 C 2.679688 -3.75 2.421875 -4.710938 2.421875 -5.765625 L 2.421875 -21.859375 C 2.421875 -22.898438 2.679688 -23.859375 3.203125 -24.734375 C 3.734375 -25.609375 4.4375 -26.304688 5.3125 -26.828125 C 6.1875 -27.347656 7.144531 -27.609375 8.1875 -27.609375 L 24.75 -27.609375 C 25.832031 -27.609375 26.8125 -27.347656 27.6875 -26.828125 C 28.5625 -26.304688 29.257812 -25.609375 29.78125 -24.734375 C 30.300781 -23.859375 30.5625 -22.898438 30.5625 -21.859375 L 30.5625 -5.765625 C 30.5625 -4.710938 30.300781 -3.75 29.78125 -2.875 C 29.257812 -2.007812 28.5625 -1.3125 27.6875 -0.78125 C 26.8125 -0.257812 25.832031 0 24.75 0 Z M 8.1875 -3.90625 L 24.75 -3.90625 C 25.257812 -3.90625 25.695312 -4.085938 26.0625 -4.453125 C 26.425781 -4.816406 26.609375 -5.253906 26.609375 -5.765625 L 26.609375 -21.859375 C 26.609375 -22.359375 26.425781 -22.789062 26.0625 -23.15625 C 25.695312 -23.519531 25.257812 -23.703125 24.75 -23.703125 L 8.1875 -23.703125 C 7.675781 -23.703125 7.238281 -23.519531 6.875 -23.15625 C 6.507812 -22.789062 6.328125 -22.359375 6.328125 -21.859375 L 6.328125 -5.765625 C 6.328125 -5.253906 6.507812 -4.816406 6.875 -4.453125 C 7.238281 -4.085938 7.675781 -3.90625 8.1875 -3.90625 Z M 8.1875 -3.90625 "/></g></g></g><g fill="#000000" fill-opacity="1"><g transform="translate(85.056356, 53.126287)"><g><path d="M 2.578125 0 L 2.578125 -27.609375 L 24.953125 -27.609375 C 25.992188 -27.609375 26.953125 -27.347656 27.828125 -26.828125 C 28.703125 -26.304688 29.398438 -25.609375 29.921875 -24.734375 C 30.441406 -23.859375 30.703125 -22.898438 30.703125 -21.859375 L 30.703125 0 L 26.796875 0 L 26.796875 -21.859375 C 26.796875 -22.359375 26.613281 -22.789062 26.25 -23.15625 C 25.882812 -23.519531 25.453125 -23.703125 24.953125 -23.703125 L 8.375 -23.703125 C 7.875 -23.703125 7.429688 -23.519531 7.046875 -23.15625 C 6.660156 -22.789062 6.46875 -22.359375 6.46875 -21.859375 L 6.46875 0 Z M 2.578125 0 "/></g></g></g><g fill="#000000" fill-opacity="1"><g transform="translate(118.189246, 53.126287)"><g><path d="M 2.578125 0 L 2.578125 -27.609375 L 24.953125 -27.609375 C 25.992188 -27.609375 26.953125 -27.347656 27.828125 -26.828125 C 28.703125 -26.304688 29.398438 -25.609375 29.921875 -24.734375 C 30.441406 -23.859375 30.703125 -22.898438 30.703125 -21.859375 L 30.703125 0 L 26.796875 0 L 26.796875 -21.859375 C 26.796875 -22.359375 26.613281 -22.789062 26.25 -23.15625 C 25.882812 -23.519531 25.453125 -23.703125 24.953125 -23.703125 L 8.375 -23.703125 C 7.875 -23.703125 7.429688 -23.519531 7.046875 -23.15625 C 6.660156 -22.789062 6.46875 -22.359375 6.46875 -21.859375 L 6.46875 0 Z M 2.578125 0 "/></g></g></g><g fill="#000000" fill-opacity="1"><g transform="translate(151.322136, 53.126287)"><g><path d="M 8.1875 0 C 7.144531 0 6.1875 -0.257812 5.3125 -0.78125 C 4.4375 -1.3125 3.734375 -2.007812 3.203125 -2.875 C 2.679688 -3.75 2.421875 -4.710938 2.421875 -5.765625 L 2.421875 -21.859375 C 2.421875 -22.898438 2.679688 -23.859375 3.203125 -24.734375 C 3.734375 -25.609375 4.4375 -26.304688 5.3125 -26.828125 C 6.1875 -27.347656 7.144531 -27.609375 8.1875 -27.609375 L 24.75 -27.609375 C 25.832031 -27.609375 26.8125 -27.347656 27.6875 -26.828125 C 28.5625 -26.304688 29.257812 -25.609375 29.78125 -24.734375 C 30.300781 -23.859375 30.5625 -22.898438 30.5625 -21.859375 L 30.5625 -11.859375 L 6.328125 -11.859375 L 6.328125 -5.765625 C 6.328125 -5.253906 6.507812 -4.816406 6.875 -4.453125 C 7.238281 -4.085938 7.675781 -3.90625 8.1875 -3.90625 L 30.5625 -3.90625 L 30.5625 0 Z M 6.328125 -15.765625 L 26.609375 -15.765625 L 26.609375 -21.859375 C 26.609375 -22.359375 26.425781 -22.789062 26.0625 -23.15625 C 25.695312 -23.519531 25.257812 -23.703125 24.75 -23.703125 L 8.1875 -23.703125 C 7.675781 -23.703125 7.238281 -23.519531 6.875 -23.15625 C 6.507812 -22.789062 6.328125 -22.359375 6.328125 -21.859375 Z M 6.328125 -15.765625 "/></g></g></g><g fill="#000000" fill-opacity="1"><g transform="translate(184.264605, 53.126287)"><g><path d="M 8.1875 0 C 7.144531 0 6.1875 -0.257812 5.3125 -0.78125 C 4.4375 -1.3125 3.734375 -2.007812 3.203125 -2.875 C 2.679688 -3.75 2.421875 -4.710938 2.421875 -5.765625 L 2.421875 -21.859375 C 2.421875 -22.898438 2.679688 -23.859375 3.203125 -24.734375 C 3.734375 -25.609375 4.4375 -26.304688 5.3125 -26.828125 C 6.1875 -27.347656 7.144531 -27.609375 8.1875 -27.609375 L 30.46875 -27.609375 L 30.46875 -23.703125 L 8.1875 -23.703125 C 7.675781 -23.703125 7.238281 -23.519531 6.875 -23.15625 C 6.507812 -22.789062 6.328125 -22.359375 6.328125 -21.859375 L 6.328125 -5.765625 C 6.328125 -5.253906 6.507812 -4.816406 6.875 -4.453125 C 7.238281 -4.085938 7.675781 -3.90625 8.1875 -3.90625 L 30.5625 -3.90625 L 30.5625 0 Z M 8.1875 0 "/></g></g></g><g fill="#000000" fill-opacity="1"><g transform="translate(217.349887, 53.126287)"><g><path d="M 8.28125 0 C 7.207031 0 6.234375 -0.257812 5.359375 -0.78125 C 4.484375 -1.3125 3.789062 -2.007812 3.28125 -2.875 C 2.769531 -3.75 2.515625 -4.710938 2.515625 -5.765625 L 2.515625 -36.65625 L 6.421875 -36.65625 L 6.421875 -27.609375 L 18.375 -27.609375 L 18.375 -23.703125 L 6.421875 -23.703125 L 6.421875 -5.765625 C 6.421875 -5.253906 6.601562 -4.816406 6.96875 -4.453125 C 7.332031 -4.085938 7.769531 -3.90625 8.28125 -3.90625 L 18.375 -3.90625 L 18.375 0 Z M 8.28125 0 "/></g></g></g><g fill="#000000" fill-opacity="1"><g transform="translate(236.867823, 53.126287)"><g/></g></g><g fill="#000000" fill-opacity="1"><g transform="translate(249.816318, 53.126287)"><g><path d="M 12.515625 0 L 1.671875 -27.609375 L 5.859375 -27.609375 L 14.234375 -7.046875 L 23.140625 -27.609375 L 28.28125 -27.609375 L 37.75 -7.09375 L 45.5625 -27.609375 L 49.796875 -27.609375 L 39.375 0 L 36 0 L 25.703125 -22.8125 L 15.953125 0 Z M 12.515625 0 "/></g></g></g><g fill="#000000" fill-opacity="1"><g transform="translate(300.800957, 53.126287)"><g><path d="M 2.46875 0 L 2.46875 -27.609375 L 6.375 -27.609375 L 6.375 0 Z M 2.46875 -32.75 L 2.46875 -36.65625 L 6.375 -36.65625 L 6.375 -32.75 Z M 2.46875 -32.75 "/></g></g></g><g fill="#000000" fill-opacity="1"><g transform="translate(310.70275, 53.126287)"><g><path d="M 8.28125 0 C 7.207031 0 6.234375 -0.257812 5.359375 -0.78125 C 4.484375 -1.3125 3.789062 -2.007812 3.28125 -2.875 C 2.769531 -3.75 2.515625 -4.710938 2.515625 -5.765625 L 2.515625 -36.65625 L 6.421875 -36.65625 L 6.421875 -27.609375 L 18.375 -27.609375 L 18.375 -23.703125 L 6.421875 -23.703125 L 6.421875 -5.765625 C 6.421875 -5.253906 6.601562 -4.816406 6.96875 -4.453125 C 7.332031 -4.085938 7.769531 -3.90625 8.28125 -3.90625 L 18.375 -3.90625 L 18.375 0 Z M 8.28125 0 "/></g></g></g><g fill="#000000" fill-opacity="1"><g transform="translate(330.220686, 53.126287)"><g><path d="M 2.578125 0 L 2.578125 -36.65625 L 6.46875 -36.65625 L 6.46875 -27.609375 L 24.953125 -27.609375 C 25.992188 -27.609375 26.953125 -27.347656 27.828125 -26.828125 C 28.703125 -26.304688 29.398438 -25.609375 29.921875 -24.734375 C 30.441406 -23.859375 30.703125 -22.898438 30.703125 -21.859375 L 30.703125 0 L 26.796875 0 L 26.796875 -21.859375 C 26.796875 -22.359375 26.613281 -22.789062 26.25 -23.15625 C 25.882812 -23.519531 25.453125 -23.703125 24.953125 -23.703125 L 8.375 -23.703125 C 7.875 -23.703125 7.429688 -23.519531 7.046875 -23.15625 C 6.660156 -22.789062 6.46875 -22.359375 6.46875 -21.859375 L 6.46875 0 Z M 2.578125 0 "/></g></g></g></svg>