<?xml version="1.0" encoding="iso-8859-1"?>
<!-- Generator: Adobe Illustrator 16.0.0, SVG Export Plug-In . SVG Version: 6.00 Build 0)  -->
<!DOCTYPE svg PUBLIC "-//W3C//DTD SVG 1.1//EN" "http://www.w3.org/Graphics/SVG/1.1/DTD/svg11.dtd">
<svg version="1.1" id="Capa_1" xmlns="http://www.w3.org/2000/svg" xmlns:xlink="http://www.w3.org/1999/xlink" x="0px" y="0px"
	 width="167.541px" height="167.541px" viewBox="0 0 167.541 167.541" style="enable-background:new 0 0 167.541 167.541;"
	 xml:space="preserve">
<g>
	<path d="M86.21,43.719L74.928,67.513c4.177,4.566,6.455,10.452,6.455,16.78c0,1.477-1.21,2.699-2.7,2.699
		c-1.49,0-2.7-1.223-2.7-2.699c0-5.506-2.184-10.561-6.146-14.271c-0.856-0.793-1.102-2.069-0.593-3.122l12.089-25.505
		c0.639-1.337,2.252-1.911,3.597-1.284C86.274,40.771,86.843,42.379,86.21,43.719z M167.384,50.025l-30.955,89.153
		c-0.016,0.053-0.079,0.073-0.1,0.126c-0.938,10.695-34.6,13.563-52.556,13.563c-17.956,0-51.629-2.868-52.568-13.563
		c-0.021-0.053-0.077-0.073-0.098-0.126L0.151,50.025c-0.391-1.118-0.005-2.354,0.944-3.056c0.957-0.696,2.251-0.696,3.204,0
		l42.881,31.472c0.949,0.696,1.34,1.928,0.96,3.046c-0.346,1.013-0.512,1.93-0.512,2.806c0,4.846,3.937,8.774,8.775,8.774
		c4.838,0,8.774-3.934,8.774-8.774c0-4.546-3.44-8.277-7.992-8.67c-0.88-0.092-1.669-0.58-2.107-1.35
		c-0.438-0.778-0.475-1.698-0.097-2.507l26.346-55.543c0.448-0.957,1.395-1.55,2.441-1.55s1.993,0.593,2.441,1.55l26.325,55.501
		c0.38,0.809,0.338,1.758-0.116,2.549c-0.459,0.77-1.276,1.258-2.178,1.3c-4.651,0.253-8.295,4.089-8.295,8.72
		c0,4.846,3.939,8.774,8.774,8.774c4.842,0,8.775-3.934,8.775-8.774c0-1.065-0.211-2.137-0.628-3.207
		c-0.448-1.149-0.062-2.457,0.949-3.174l43.464-30.963c0.955-0.686,2.247-0.675,3.186,0.032
		C167.406,47.687,167.78,48.918,167.384,50.025z M134.41,128.531c0-0.031-0.016-0.058-0.016-0.09c0-2.811-17.218-9.381-50.62-9.381
		c-33.404,0-50.63,6.581-50.63,9.381c0,0.032-0.016,0.059-0.016,0.09l1.613,4.646c9.089-6.429,33.378-8.332,49.032-8.332
		c15.646,0,39.941,1.903,49.022,8.332L134.41,128.531z M131.019,138.856c-0.47-2.911-17.571-8.611-47.245-8.611
		c-29.679,0-46.786,5.7-47.255,8.633c0.501,2.9,17.643,8.596,47.255,8.596C113.379,147.474,130.518,141.778,131.019,138.856z
		 M159.506,56.264l-34.984,24.917c0.237,1.027,0.364,2.066,0.364,3.111c0,7.81-6.365,14.175-14.175,14.175
		c-7.815,0-14.176-6.37-14.176-14.175c0-6.187,4.003-11.502,9.63-13.385L83.769,23.669L61.304,71.032
		c5.477,1.98,9.273,7.159,9.273,13.261c0,7.814-6.362,14.175-14.175,14.175c-7.815,0-14.175-6.365-14.175-14.175
		c0-0.854,0.087-1.709,0.264-2.59L8.092,56.446l23.053,66.385c9.521-7.108,36.811-9.176,52.628-9.176
		c15.815,0,43.095,2.067,52.619,9.176L159.506,56.264z"/>
</g>
<g>
</g>
<g>
</g>
<g>
</g>
<g>
</g>
<g>
</g>
<g>
</g>
<g>
</g>
<g>
</g>
<g>
</g>
<g>
</g>
<g>
</g>
<g>
</g>
<g>
</g>
<g>
</g>
<g>
</g>
</svg>
