<?xml version="1.0" encoding="utf-8"?><svg version="1.1" id="Layer_1" xmlns="http://www.w3.org/2000/svg" xmlns:xlink="http://www.w3.org/1999/xlink" x="0px" y="0px" width="117.867px" height="122.881px" viewBox="0 0 117.867 122.881" enable-background="new 0 0 117.867 122.881" xml:space="preserve"><g><path d="M12.391,46.025l34.225,30.572c0.038,0.035,0.111,0.074,0.148,0.146L58.306,87.07l46.616-40.713V34.359L77.188,5.458H12.391 V46.025L12.391,46.025L12.391,46.025z M62.085,57.193h-6.361V45.367H43.836v-6.483h11.888V26.996h6.361v11.888h11.946v6.483H62.085 V57.193L62.085,57.193z M110.417,41.562c0.738-0.628,1.585-0.922,2.434-0.922c0.738,0,1.401,0.221,2.065,0.59 c0.479,0.294,0.886,0.663,1.255,1.07c0.958,1.105,1.696,2.838,1.696,4.278v70.66c0,1.551-0.628,2.951-1.66,3.984 c-1.033,1.031-2.435,1.658-3.981,1.658H5.642c-1.547,0-2.949-0.627-3.981-1.658C0.628,120.189,0,118.789,0,117.238v-70.66 c0-1.439,0.738-3.21,1.733-4.315c0.369-0.407,0.773-0.773,1.253-1.032c0.627-0.369,1.291-0.59,2.029-0.59 c0.663,0,1.326,0.184,1.954,0.553V2.728C6.97,1.216,8.188,0,9.7,0h69.222c0.85,0,1.623,0.367,2.103,0.995l28.654,29.613 c0.517,0.518,0.776,1.219,0.776,1.919v0.773c0,0.111,0.035,0.221,0.035,0.332s0,0.221-0.035,0.332V41.6L110.417,41.562 L110.417,41.562z M56.462,92.752L44.845,82.35L5.42,116.906v0.295c0,0.037,0,0.109,0.038,0.109 c0.038,0.039,0.073,0.039,0.111,0.039H112.15c0.037,0,0.11,0,0.11-0.039c0.037-0.035,0.037-0.072,0.037-0.109v-0.184L72.321,81.98 L60.004,92.713c-1.033,0.885-2.583,0.922-3.615-0.037L56.462,92.752L56.462,92.752z M40.716,78.701L5.385,47.13v62.51 L40.716,78.701L40.716,78.701z M112.336,109.789V47.13L76.525,78.404L112.336,109.789L112.336,109.789z"/></g></svg>