<?xml version="1.0" encoding="utf-8"?>
<!-- Svg Vector Icons : http://www.onlinewebfonts.com/icon -->
<!DOCTYPE svg PUBLIC "-//W3C//DTD SVG 1.1//EN" "http://www.w3.org/Graphics/SVG/1.1/DTD/svg11.dtd">
<svg version="1.1" xmlns="http://www.w3.org/2000/svg" xmlns:xlink="http://www.w3.org/1999/xlink" x="0px" y="0px" viewBox="0 0 1000 1000" enable-background="new 0 0 1000 1000" xml:space="preserve">
<metadata> Svg Vector Icons : http://www.onlinewebfonts.com/icon </metadata>
<g><g><g><path d="M789.1,534.6l0.7-0.2c0,0-13.9-96.6-96.5-91.3c0,0-50.4,9.6-119.8,10.5v75.5h-40.7v-76c-12.2-0.5-24.9-1.3-37.8-2.5v68.4h-40.7v-73.6c-12-1.9-24.2-4.3-36.3-7.2V500h-40.6v-73.3c-19-6.3-37.7-14-55.5-23.3c-12.4-6.5-78.3-188.8-89.8-196.9L10,276.6l32.4,199.5c-66.5,80.5,66.4,261.1,66.4,261.1l0.7-0.3c-0.2,0.5-0.5,1.1-0.3,1.6l16.7,52.4c0.9,3,8.3,3.5,16.3,1l134.2-41.3c0,0-30.6-78.2,36.7-98.9c17.2-5.6,35.1-0.1,35.1-0.1c49.6,11.6,110,43.1,110,43.1l333.3-102.5c7.9-2.4,13.8-7,12.9-10l-14.3-46.5C790,535.3,789.5,534.9,789.1,534.6z"/><path d="M924.1,466.3L990,446l-67.7-13.5c-45.4-9-76-27.6-90.9-55c-22.3-40.9-3.3-90.4-3.1-90.8l20.2-50.2l-45.7,29c-35,22.2-67.4,29-96.2,20.1c-50.7-15.5-76.7-74-77-74.6l-32,13.9c1.3,3,32.4,73.6,98.5,94c28.6,8.8,59,6.9,90.6-5.9c-2.6,22.9-1.3,52.7,13.9,80.9c14.5,26.8,38.7,47,72.3,60.4c-16,11.8-32.3,29.1-40.3,53.3c-13.1,39.2-0.8,84.7,36.2,135.4l28.1-20.6c-29.9-40.9-40.5-75.8-31.4-103.6C877.9,481.2,923.6,466.4,924.1,466.3z"/></g></g><g></g><g></g><g></g><g></g><g></g><g></g><g></g><g></g><g></g><g></g><g></g><g></g><g></g><g></g><g></g></g>
</svg>