<?xml version="1.0" encoding="utf-8"?>
<!-- Svg Vector Icons : http://www.onlinewebfonts.com/icon -->
<!DOCTYPE svg PUBLIC "-//W3C//DTD SVG 1.1//EN" "http://www.w3.org/Graphics/SVG/1.1/DTD/svg11.dtd">
<svg version="1.1" xmlns="http://www.w3.org/2000/svg" xmlns:xlink="http://www.w3.org/1999/xlink" x="0px" y="0px" viewBox="0 0 1000 1000" enable-background="new 0 0 1000 1000" xml:space="preserve">
<metadata> Svg Vector Icons : http://www.onlinewebfonts.com/icon </metadata>
<g><path d="M833.9,858.5H166.1C79.9,858.5,10,788.4,10,702.4V297.6c0-86.1,70.1-156.1,156.1-156.1h667.8c86.1,0,156.1,70.1,156.1,156.1v404.8C990.1,788.5,920.1,858.5,833.9,858.5L833.9,858.5z M166.1,183.3c-63,0-114.4,51.3-114.4,114.4v404.8c0,63,51.3,114.4,114.4,114.4h667.8c63,0,114.4-51.3,114.4-114.4v-405c0-63-51.3-114.4-114.4-114.4H166.1V183.3z"/><path d="M447.5,365.6H181.9c-11.6,0-21-9.4-21-21s9.4-21,21-21h265.6c11.6,0,21,9.4,21,21C468.4,356.2,459,365.6,447.5,365.6L447.5,365.6z"/><path d="M447.5,516.5H181.9c-11.6,0-21-9.4-21-21c0-11.6,9.4-21,21-21h265.6c11.6,0,21,9.4,21,21C468.4,507.1,459,516.5,447.5,516.5L447.5,516.5z"/><path d="M447.5,667.6H181.9c-11.6,0-21-9.4-21-21c0-11.6,9.4-21,21-21h265.6c11.6,0,21,9.4,21,21C468.4,658.2,459,667.6,447.5,667.6L447.5,667.6z"/><path d="M740.2,507.4c40.8-20.4,69-62.2,69-110.8c0-68.4-55.8-124.2-124.2-124.2s-124.2,55.8-124.2,124.2c0,48.6,28.3,90.4,69,110.8C554.8,531.1,500,600.4,500,683c0,11.6,9.4,21,21,21c11.6,0,21-9.4,21-21c0-78.9,64.2-143.2,143.2-143.2c78.9,0,143.1,64.2,143.1,143.2c0,11.6,9.4,21,21,21c11.6,0,21-9.4,21-21C869.8,600.4,815,531.1,740.2,507.4L740.2,507.4z M602.5,396.7c0-45.4,37-82.5,82.5-82.5s82.6,37,82.6,82.5s-37,82.5-82.6,82.5C639.5,479.1,602.5,442.1,602.5,396.7L602.5,396.7z"/></g>
</svg>