<svg height="512" viewBox="0 0 32 32" width="512" xmlns="http://www.w3.org/2000/svg"><g id="Layer_2" data-name="Layer 2"><rect height="1.5" rx=".75" width="10" x="6" y="25.14"/><rect height="1.5" rx=".75" width="5" x="6" y="21.64"/><path d="m14.37 19.82a2.07 2.07 0 0 1 -1.46-.62 2 2 0 0 1 -.53-2l.81-2.69a3 3 0 0 1 .75-1.26l11.26-11.25a2.16 2.16 0 0 1 3.06 0l1.82 1.82a2.26 2.26 0 0 1 .67 1.51 2 2 0 0 1 -.59 1.54l-11.28 11.31a3 3 0 0 1 -1.26.75l-2.69.81a2 2 0 0 1 -.56.08zm12.3-17a.55.55 0 0 0 -.4.16l-11.27 11.31a1.5 1.5 0 0 0 -.37.63l-.81 2.69a.55.55 0 0 0 .16.53.54.54 0 0 0 .53.16l2.69-.81a1.5 1.5 0 0 0 .63-.37l11.26-11.27a.56.56 0 0 0 .16-.42.76.76 0 0 0 -.25-.52l-1.8-1.82a.77.77 0 0 0 -.54-.23z"/><path d="m24.28 4.33h1.5v5.5h-1.5z" transform="matrix(.707 -.707 .707 .707 2.32 19.77)"/><path d="m23.2 30.64h-18.4a3.55 3.55 0 0 1 -3.55-3.55v-18.4a3.55 3.55 0 0 1 3.55-3.55h10.45a.75.75 0 0 1 .75.75.75.75 0 0 1 -.75.75h-10.45a2 2 0 0 0 -2 2v18.4a2 2 0 0 0 2 2h18.4a2 2 0 0 0 2-2v-10.4a.75.75 0 0 1 .75-.75.75.75 0 0 1 .75.75v10.45a3.55 3.55 0 0 1 -3.5 3.55z"/></g></svg>