<?xml version="1.0" encoding="utf-8"?>
<!-- Svg Vector Icons : http://www.onlinewebfonts.com/icon -->
<!DOCTYPE svg PUBLIC "-//W3C//DTD SVG 1.1//EN" "http://www.w3.org/Graphics/SVG/1.1/DTD/svg11.dtd">
<svg version="1.1" xmlns="http://www.w3.org/2000/svg" xmlns:xlink="http://www.w3.org/1999/xlink" x="0px" y="0px" viewBox="0 0 1000 1000" enable-background="new 0 0 1000 1000" xml:space="preserve">
<metadata> Svg Vector Icons : http://www.onlinewebfonts.com/icon </metadata>
<g><g><path d="M915.3,54.1c-17.9-17.9-47-17.9-65,0L656.9,247.6c-49.7-15.1-102.4-23.2-156.9-23.2c-213.7,0-399,124.5-490,306.3c39.4,78.6,96.3,146.5,165.6,198.2L23.5,881c-17.9,17.9-17.9,47,0,65c9,9,20.7,13.5,32.5,13.5s23.5-4.5,32.5-13.5L915.3,119C933.2,101.1,933.2,72,915.3,54.1z M408.1,346.9c40.4,0,74.7,26.1,87,62.4L378.6,525.8c-36.3-12.3-62.4-46.6-62.4-87C316.3,388,357.4,346.9,408.1,346.9z M115.4,530.6c36.6-57.9,85.4-107.1,143-143.8c3.7-2.4,7.5-4.7,11.4-7c-9.5,26.2-14.8,54.4-14.8,83.8c0,52.5,16.5,101.2,44.7,141.1L241.4,663C191.2,627.8,148.4,582.7,115.4,530.6z"/><path d="M745,463.6c0-26-4.1-51-11.6-74.6l-308,308c23.5,7.5,48.6,11.6,74.6,11.6C635.3,708.6,745,598.9,745,463.6L745,463.6z"/><path d="M804.4,318.1L738,384.5c1.2,0.8,2.4,1.5,3.6,2.3c57.6,36.7,106.4,85.9,143,143.8c-36.6,57.9-85.4,107.1-143,143.8C669.3,720.6,585.7,745,500,745c-37,0-73.6-4.6-109.1-13.4l-73.6,73.6c57.2,20.5,118.6,31.7,182.7,31.7c213.7,0,399-124.5,490-306.3C946.9,444.6,882.7,371.4,804.4,318.1z"/></g></g>
</svg>