<svg xmlns="http://www.w3.org/2000/svg" xmlns:xlink="http://www.w3.org/1999/xlink" width="500" zoomAndPan="magnify" viewBox="0 0 375 374.999991" height="500" preserveAspectRatio="xMidYMid meet" version="1.0"><defs><clipPath id="b4432a6a75"><path d="M 30.101562 76 L 276 76 L 276 313 L 30.101562 313 Z M 30.101562 76 " clip-rule="nonzero"/></clipPath><clipPath id="652dd63406"><path d="M 243 307 L 305 307 L 305 317.699219 L 243 317.699219 Z M 243 307 " clip-rule="nonzero"/></clipPath><clipPath id="48d2c6df03"><path d="M 221 307 L 241 307 L 241 317.699219 L 221 317.699219 Z M 221 307 " clip-rule="nonzero"/></clipPath><clipPath id="dc3e100f1a"><path d="M 122 57.449219 L 184 57.449219 L 184 68 L 122 68 Z M 122 57.449219 " clip-rule="nonzero"/></clipPath><clipPath id="38d79186fd"><path d="M 98 57.449219 L 119 57.449219 L 119 68 L 98 68 Z M 98 57.449219 " clip-rule="nonzero"/></clipPath></defs><path fill="#ff914d" d="M 203.550781 194.460938 C 203.550781 155.488281 235.265625 123.777344 274.246094 123.777344 C 283.351562 123.777344 292.050781 125.527344 300.054688 128.679688 C 299.121094 127.835938 298.1875 127 297.242188 126.171875 C 290.167969 120 282.753906 114.238281 275.214844 108.636719 C 275.101562 110.21875 274.261719 111.726562 272.808594 112.621094 C 270.410156 114.097656 267.265625 113.347656 265.789062 110.949219 C 258.84375 99.652344 245.695312 91.1875 230.621094 88.304688 C 217.574219 85.8125 202.695312 87.0625 186.386719 92.011719 C 184.941406 92.453125 183.480469 92.914062 182.011719 93.378906 C 177.597656 94.777344 172.945312 96.25 168.183594 97.238281 C 170.4375 98.746094 172.382812 100.789062 173.519531 103.75 C 174.867188 107.261719 174.566406 111.105469 172.667969 114.566406 C 169.976562 119.476562 164.167969 123.484375 157.871094 124.769531 C 148.976562 126.585938 140.246094 125.226562 131.804688 123.910156 C 128.53125 123.398438 125.4375 122.917969 122.335938 122.609375 C 107.796875 121.167969 92.988281 123.890625 79.832031 130.121094 C 90.410156 130.472656 100.890625 133.851562 109.339844 140.125 C 117.226562 145.988281 122.921875 155.230469 124.195312 164.25 C 125.136719 170.949219 123.644531 177.101562 119.875 182.050781 C 114.425781 189.195312 104.820312 192.949219 92.824219 192.636719 C 89.082031 192.539062 85.402344 192.109375 81.847656 191.695312 C 77.023438 191.132812 72.472656 190.609375 67.996094 190.878906 C 64.25 191.105469 60.527344 191.953125 57.003906 193.332031 C 64.710938 193.84375 72.269531 196.515625 78.507812 201.289062 C 88.753906 209.136719 93.96875 220.753906 99.015625 231.984375 C 99.839844 233.824219 100.664062 235.660156 101.507812 237.464844 C 108.492188 252.445312 116.386719 260.707031 125.636719 262.730469 C 129.417969 263.554688 133.605469 263.351562 138.039062 263.136719 C 144.945312 262.804688 152.09375 262.457031 158.890625 265.902344 C 162.433594 267.699219 164.980469 270.25 166.25 273.277344 C 167.675781 276.671875 167.433594 280.460938 165.5625 283.945312 C 163.320312 288.117188 159.054688 291.253906 154.425781 292.132812 C 151.527344 292.683594 148.679688 292.527344 145.996094 292.003906 C 146.148438 292.09375 146.308594 292.179688 146.46875 292.265625 C 179.605469 309.617188 224.46875 302.691406 250.824219 276.148438 C 252.808594 274.144531 256.042969 274.132812 258.042969 276.121094 C 258.21875 276.296875 258.359375 276.488281 258.503906 276.679688 C 263.867188 272.957031 269.125 269.089844 274.328125 265.144531 C 274.300781 265.144531 274.269531 265.144531 274.246094 265.144531 C 235.265625 265.144531 203.550781 233.4375 203.550781 194.460938 " fill-opacity="1" fill-rule="nonzero"/><g clip-path="url(#b4432a6a75)"><path fill="#16638d" d="M 250.824219 276.148438 C 224.46875 302.691406 179.605469 309.617188 146.46875 292.265625 C 146.308594 292.183594 146.148438 292.09375 145.996094 292.003906 C 148.679688 292.527344 151.523438 292.6875 154.425781 292.136719 C 159.054688 291.253906 163.320312 288.117188 165.558594 283.945312 C 167.429688 280.460938 167.675781 276.671875 166.25 273.28125 C 164.980469 270.253906 162.433594 267.699219 158.886719 265.902344 C 152.09375 262.457031 144.945312 262.804688 138.035156 263.136719 C 133.605469 263.351562 129.417969 263.554688 125.636719 262.730469 C 116.386719 260.707031 108.492188 252.445312 101.507812 237.464844 C 100.664062 235.660156 99.839844 233.824219 99.015625 231.984375 C 93.96875 220.753906 88.753906 209.136719 78.503906 201.289062 C 72.269531 196.515625 64.710938 193.847656 57.003906 193.332031 C 60.527344 191.953125 64.246094 191.105469 67.992188 190.878906 C 72.472656 190.609375 77.023438 191.136719 81.847656 191.695312 C 85.402344 192.109375 89.082031 192.539062 92.824219 192.636719 C 104.820312 192.953125 114.425781 189.195312 119.871094 182.050781 C 123.644531 177.105469 125.136719 170.949219 124.191406 164.253906 C 122.917969 155.234375 117.226562 145.988281 109.335938 140.125 C 100.890625 133.851562 90.40625 130.472656 79.832031 130.121094 C 92.988281 123.894531 107.792969 121.167969 122.332031 122.609375 C 125.4375 122.917969 128.53125 123.398438 131.804688 123.910156 C 140.246094 125.226562 148.976562 126.585938 157.867188 124.769531 C 164.164062 123.484375 169.972656 119.480469 172.667969 114.566406 C 174.566406 111.105469 174.867188 107.265625 173.519531 103.75 C 172.382812 100.792969 170.433594 98.75 168.183594 97.238281 C 172.945312 96.25 177.597656 94.777344 182.011719 93.378906 C 183.480469 92.917969 184.9375 92.453125 186.386719 92.015625 C 202.695312 87.0625 217.574219 85.816406 230.621094 88.308594 C 245.691406 91.1875 258.839844 99.652344 265.789062 110.949219 C 267.261719 113.347656 270.40625 114.097656 272.808594 112.625 C 274.261719 111.726562 275.097656 110.21875 275.214844 108.636719 C 275.289062 107.609375 275.0625 106.546875 274.480469 105.601562 C 265.933594 91.703125 250.644531 81.746094 232.535156 78.28125 C 217.851562 75.476562 201.328125 76.8125 183.417969 82.25 C 181.9375 82.699219 180.4375 83.171875 178.933594 83.648438 C 168.992188 86.796875 158.71875 90.046875 149.945312 86.9375 C 147.976562 86.234375 145.777344 86.808594 144.402344 88.375 C 143.023438 89.945312 142.742188 92.199219 143.6875 94.058594 C 146.496094 99.570312 152.195312 101.59375 156.773438 103.21875 C 160.695312 104.613281 163.320312 105.65625 163.988281 107.40625 C 164.183594 107.917969 164.304688 108.585938 163.71875 109.660156 C 162.484375 111.90625 159.09375 114.105469 155.824219 114.769531 C 148.734375 116.21875 141.273438 115.058594 133.375 113.824219 C 130.109375 113.316406 126.726562 112.789062 123.339844 112.453125 C 97.3125 109.871094 70.507812 119.148438 51.640625 137.265625 C 49.789062 139.046875 49.546875 141.925781 51.074219 143.988281 C 52.605469 146.050781 55.429688 146.652344 57.671875 145.398438 C 71.648438 137.5625 90.386719 138.765625 103.25 148.320312 C 108.941406 152.546875 113.195312 159.363281 114.085938 165.679688 C 114.648438 169.667969 113.863281 173.097656 111.753906 175.863281 C 106.988281 182.113281 97.109375 182.539062 93.097656 182.433594 C 89.804688 182.347656 86.511719 181.960938 83.023438 181.558594 C 77.972656 180.972656 72.753906 180.363281 67.378906 180.691406 C 53.195312 181.546875 39.847656 188.996094 31.675781 200.613281 C 30.273438 202.605469 30.472656 205.304688 32.148438 207.066406 C 33.828125 208.832031 36.515625 209.164062 38.570312 207.867188 C 48.652344 201.503906 62.835938 202.144531 72.300781 209.390625 C 80.5 215.671875 84.96875 225.625 89.703125 236.167969 C 90.550781 238.050781 91.394531 239.929688 92.257812 241.78125 C 100.679688 259.839844 110.886719 269.953125 123.457031 272.699219 C 128.558594 273.8125 133.628906 273.570312 138.53125 273.332031 C 144.371094 273.050781 149.886719 272.78125 154.269531 275.003906 C 155.589844 275.671875 156.527344 276.484375 156.839844 277.230469 C 157.054688 277.742188 156.964844 278.378906 156.566406 279.117188 C 155.785156 280.574219 154.121094 281.804688 152.519531 282.109375 C 148.78125 282.820312 144.476562 281.15625 139.640625 279.082031 C 137.667969 278.234375 135.375 278.710938 133.902344 280.277344 C 131.722656 282.601562 130.816406 285.621094 131.347656 288.78125 C 132.253906 294.152344 137.21875 298.941406 141.734375 301.308594 C 155.269531 308.394531 170.851562 312.070312 186.804688 312.070312 C 192.101562 312.070312 197.445312 311.664062 202.761719 310.84375 C 224.085938 307.550781 243.722656 297.78125 258.066406 283.339844 C 259.878906 281.515625 260.007812 278.675781 258.503906 276.679688 C 258.355469 276.488281 258.21875 276.296875 258.039062 276.121094 C 256.042969 274.136719 252.808594 274.144531 250.824219 276.148438 " fill-opacity="1" fill-rule="nonzero"/></g><path fill="#ffffff" d="M 274.242188 133.984375 C 240.890625 133.984375 213.757812 161.117188 213.757812 194.460938 C 213.757812 227.808594 240.890625 254.9375 274.242188 254.9375 C 307.59375 254.9375 334.726562 227.808594 334.726562 194.460938 C 334.726562 161.117188 307.59375 133.984375 274.242188 133.984375 " fill-opacity="1" fill-rule="nonzero"/><path fill="#16638d" d="M 274.242188 254.9375 C 240.890625 254.9375 213.761719 227.808594 213.761719 194.460938 C 213.761719 161.117188 240.890625 133.984375 274.242188 133.984375 C 307.59375 133.984375 334.726562 161.117188 334.726562 194.460938 C 334.726562 227.808594 307.59375 254.9375 274.242188 254.9375 Z M 300.054688 128.679688 C 292.050781 125.527344 283.351562 123.777344 274.242188 123.777344 C 235.265625 123.777344 203.550781 155.488281 203.550781 194.460938 C 203.550781 233.4375 235.265625 265.144531 274.242188 265.144531 C 274.273438 265.144531 274.300781 265.144531 274.328125 265.144531 C 313.269531 265.097656 344.933594 233.410156 344.933594 194.460938 C 344.933594 164.59375 326.300781 139.011719 300.054688 128.679688 " fill-opacity="1" fill-rule="nonzero"/><g clip-path="url(#652dd63406)"><path fill="#16638d" d="M 299.832031 307.484375 L 248.652344 307.484375 C 245.835938 307.484375 243.550781 309.769531 243.550781 312.589844 C 243.550781 315.40625 245.835938 317.691406 248.652344 317.691406 L 299.832031 317.691406 C 302.648438 317.691406 304.933594 315.40625 304.933594 312.589844 C 304.933594 309.769531 302.648438 307.484375 299.832031 307.484375 " fill-opacity="1" fill-rule="nonzero"/></g><g clip-path="url(#48d2c6df03)"><path fill="#16638d" d="M 235.726562 307.484375 L 226.265625 307.484375 C 223.445312 307.484375 221.160156 309.769531 221.160156 312.589844 C 221.160156 315.40625 223.445312 317.691406 226.265625 317.691406 L 235.726562 317.691406 C 238.546875 317.691406 240.832031 315.40625 240.832031 312.589844 C 240.832031 309.769531 238.546875 307.484375 235.726562 307.484375 " fill-opacity="1" fill-rule="nonzero"/></g><path fill="#16638d" d="M 73.90625 91.476562 L 125.082031 91.476562 C 127.898438 91.476562 130.183594 89.191406 130.183594 86.375 C 130.183594 83.554688 127.898438 81.269531 125.082031 81.269531 L 73.90625 81.269531 C 71.089844 81.269531 68.804688 83.554688 68.804688 86.375 C 68.804688 89.191406 71.089844 91.476562 73.90625 91.476562 " fill-opacity="1" fill-rule="nonzero"/><g clip-path="url(#dc3e100f1a)"><path fill="#16638d" d="M 127.402344 67.652344 L 178.578125 67.652344 C 181.394531 67.652344 183.683594 65.367188 183.683594 62.550781 C 183.683594 59.730469 181.394531 57.449219 178.578125 57.449219 L 127.402344 57.449219 C 124.585938 57.449219 122.300781 59.730469 122.300781 62.550781 C 122.300781 65.367188 124.585938 67.652344 127.402344 67.652344 " fill-opacity="1" fill-rule="nonzero"/></g><path fill="#16638d" d="M 51.519531 91.476562 L 60.980469 91.476562 C 63.800781 91.476562 66.085938 89.191406 66.085938 86.375 C 66.085938 83.554688 63.800781 81.269531 60.980469 81.269531 L 51.519531 81.269531 C 48.699219 81.269531 46.414062 83.554688 46.414062 86.375 C 46.414062 89.191406 48.699219 91.476562 51.519531 91.476562 " fill-opacity="1" fill-rule="nonzero"/><g clip-path="url(#38d79186fd)"><path fill="#16638d" d="M 103.855469 67.652344 L 113.320312 67.652344 C 116.136719 67.652344 118.421875 65.367188 118.421875 62.550781 C 118.421875 59.730469 116.136719 57.449219 113.320312 57.449219 L 103.855469 57.449219 C 101.039062 57.449219 98.753906 59.730469 98.753906 62.550781 C 98.753906 65.367188 101.039062 67.652344 103.855469 67.652344 " fill-opacity="1" fill-rule="nonzero"/></g><path fill="#16638d" d="M 121.007812 277.292969 L 69.832031 277.292969 C 67.011719 277.292969 64.726562 279.578125 64.726562 282.394531 C 64.726562 285.214844 67.011719 287.5 69.832031 287.5 L 121.007812 287.5 C 123.824219 287.5 126.109375 285.214844 126.109375 282.394531 C 126.109375 279.578125 123.824219 277.292969 121.007812 277.292969 " fill-opacity="1" fill-rule="nonzero"/><path fill="#16638d" d="M 55.746094 277.292969 L 46.285156 277.292969 C 43.464844 277.292969 41.179688 279.578125 41.179688 282.394531 C 41.179688 285.214844 43.464844 287.5 46.285156 287.5 L 55.746094 287.5 C 58.566406 287.5 60.851562 285.214844 60.851562 282.394531 C 60.851562 279.578125 58.566406 277.292969 55.746094 277.292969 " fill-opacity="1" fill-rule="nonzero"/></svg>